<svg height="511pt" viewBox="-70 0 511 511.90602" width="511pt" xmlns="http://www.w3.org/2000/svg"><path d="m53.25 292.59375c-2.046875 0-4.105469-.785156-5.664062-2.34375l-5.648438-5.65625c-1.734375-1.75-2.574219-4.191406-2.269531-6.640625.292969-2.445313 1.710937-4.605469 3.832031-5.871094l27.4375-16.449219 253.320312-253.285156c3.121094-3.121094 8.167969-3.128906 11.289063-.027344l22.703125 22.53125c3.144531 3.117188 3.160156 8.175782.046875 11.308594-3.109375 3.144532-8.183594 3.160156-11.3125.050782l-17.046875-16.921876-248.390625 248.351563c-.464844.464844-.984375.867187-1.542969 1.203125l-19.769531 11.847656c1.703125 3.046875 1.257813 6.964844-1.328125 9.558594-1.566406 1.558594-3.617188 2.34375-5.65625 2.34375zm0 0"/><path d="m188.523438 247.890625c-2.050782 0-4.097657-.785156-5.65625-2.34375-3.128907-3.128906-3.128907-8.183594 0-11.3125l113.152343-113.144531c3.125-3.128906 8.183594-3.128906 11.3125 0 3.125 3.128906 3.125 8.183594 0 11.3125l-113.152343 113.144531c-1.570313 1.566406-3.609376 2.34375-5.65625 2.34375zm0 0"/><path d="m149.347656 298.171875c-2.050781 0-4.097656-.785156-5.65625-2.347656l-45.160156-45.160157c-3.128906-3.125-3.128906-8.183593 0-11.308593 3.128906-3.128907 8.183594-3.128907 11.3125 0l45.160156 45.160156c3.125 3.125 3.125 8.183594 0 11.308594-1.5625 1.570312-3.609375 2.347656-5.65625 2.347656zm0 0"/><path d="m37.617188 511.90625c-2.480469 0-4.910157-1.144531-6.480469-3.296875-46.453125-63.945313-39.527344-151.007813 16.472656-207.015625 3.128906-3.128906 8.183594-3.128906 11.3125 0s3.128906 8.183594 0 11.3125c-50.398437 50.40625-56.640625 128.757812-14.839844 186.296875 2.601563 3.574219 1.808594 8.574219-1.769531 11.167969-1.414062 1.039062-3.0625 1.535156-4.695312 1.535156zm0 0"/><path d="m87.203125 462.3125c-2.050781 0-4.097656-.78125-5.65625-2.34375-31.191406-31.191406-31.191406-81.941406 0-113.144531 3.128906-3.125 8.183594-3.125 11.3125 0 3.125 3.128906 3.125 8.1875 0 11.3125-24.953125 24.953125-24.953125 65.5625 0 90.511719 3.125 3.128906 3.125 8.1875 0 11.3125-1.570313 1.570312-3.609375 2.351562-5.65625 2.351562zm0 0"/><path d="m38.507812 511.035156c-2.050781 0-4.097656-.785156-5.65625-2.34375-3.128906-3.128906-3.128906-8.183594 0-11.3125l48.71875-48.703125c3.128907-3.128906 8.183594-3.128906 11.3125 0 3.128907 3.125 3.128907 8.183594 0 11.308594l-48.71875 48.707031c-1.570312 1.558594-3.609374 2.34375-5.65625 2.34375zm0 0"/><path d="m87.203125 360.480469c-2.050781 0-4.089844-.78125-5.648437-2.335938-3.136719-3.117187-3.136719-8.183593-.015626-11.308593l62.152344-62.3125c3.125-3.136719 8.183594-3.136719 11.3125-.015626 3.132813 3.117188 3.132813 8.183594.015625 11.308594l-62.152343 62.3125c-1.570313 1.578125-3.609376 2.351563-5.664063 2.351563zm0 0"/><path d="m149.347656 298.171875c-2.050781 0-4.097656-.785156-5.65625-2.347656-3.128906-3.125-3.128906-8.183594 0-11.308594l44.734375-44.738281c3.128907-3.128906 8.183594-3.128906 11.3125 0 3.128907 3.128906 3.128907 8.183594 0 11.3125l-44.734375 44.734375c-1.5625 1.570312-3.609375 2.347656-5.65625 2.347656zm0 0"/><path d="m115.464844 372.25c-.007813 0-.007813 0 0 0-12.847656 0-24.917969-5-33.992188-14.078125-3.125-3.128906-3.125-8.1875 0-11.3125 3.128906-3.128906 8.1875-3.128906 11.3125 0 6.058594 6.054687 14.105469 9.390625 22.671875 9.390625h.007813c8.5625 0 16.617187-3.335938 22.671875-9.390625 12.503906-12.503906 12.496093-32.847656-.007813-45.363281-3.125-3.125-3.125-8.183594 0-11.308594 3.128906-3.128906 8.183594-3.128906 11.3125 0 18.746094 18.742188 18.746094 49.230469.007813 67.984375-9.070313 9.078125-21.144531 14.078125-33.984375 14.078125zm0 0"/><path d="m154.035156 343.003906c-1.199218 0-2.425781-.273437-3.570312-.84375l-32.984375-16.511718c-3.949219-1.984376-5.550781-6.789063-3.574219-10.734376 1.984375-3.960937 6.792969-5.535156 10.734375-3.574218l32.984375 16.511718c3.953125 1.984376 5.554688 6.789063 3.578125 10.734376-1.410156 2.800781-4.234375 4.417968-7.167969 4.417968zm0 0"/><path d="m141.828125 362.347656c-1.203125 0-2.425781-.273437-3.578125-.839844l-37.75-18.90625c-3.945312-1.984374-5.546875-6.792968-3.570312-10.742187 1.976562-3.945313 6.761718-5.539063 10.746093-3.570313l37.75 18.90625c3.945313 1.984376 5.542969 6.789063 3.570313 10.742188-1.410156 2.792969-4.234375 4.410156-7.167969 4.410156zm0 0"/><path d="m155.097656 236.050781c-2.046875 0-4.09375-.785156-5.65625-2.34375-3.128906-3.128906-3.128906-8.183593 0-11.3125l197.511719-197.519531c3.128906-3.128906 8.183594-3.128906 11.3125 0s3.128906 8.183594 0 11.3125l-197.511719 197.519531c-1.558594 1.558594-3.609375 2.34375-5.65625 2.34375zm0 0"/><path d="m143.785156 240.722656c-6.152344 0-12.285156-2.335937-16.976562-7.007812-4.535156-4.535156-7.03125-10.570313-7.03125-16.984375 0-6.417969 2.503906-12.449219 7.039062-16.984375 3.128906-3.113282 8.195313-3.121094 11.320313.007812 3.121093 3.136719 3.121093 8.191406-.007813 11.320313-1.511718 1.503906-2.351562 3.511719-2.351562 5.65625s.832031 4.152343 2.34375 5.664062c3.128906 3.113281 8.191406 3.121094 11.320312 0 3.128906-3.128906 8.183594-3.128906 11.3125 0 3.128906 3.128907 3.128906 8.183594 0 11.3125-4.679687 4.679688-10.824218 7.015625-16.96875 7.015625zm0 0"/><path d="m194.082031 253.441406c-2.046875 0-4.097656-.785156-5.65625-2.34375l-28.191406-28.167968c-3.128906-3.121094-3.128906-8.183594 0-11.3125 3.128906-3.128907 8.183594-3.128907 11.3125 0l28.191406 28.167968c3.128907 3.121094 3.128907 8.183594 0 11.3125-1.558593 1.558594-3.609375 2.34375-5.65625 2.34375zm0 0"/><path d="m301.667969 134.753906c-2.050781 0-4.097657-.785156-5.65625-2.34375-3.128907-3.121094-3.128907-8.183594 0-11.3125 4.535156-4.535156 7.03125-10.566406 7.03125-16.984375 0-6.40625-2.503907-12.429687-7.039063-16.96875-3.128906-3.117187-3.128906-8.183593 0-11.308593 3.125-3.128907 8.183594-3.128907 11.308594 0 7.5625 7.550781 11.730469 17.597656 11.730469 28.277343.007812 10.679688-4.160157 20.738281-11.722657 28.296875-1.558593 1.558594-3.605468 2.34375-5.652343 2.34375zm0 0"/><path d="m53.257812 315.363281c-2.046874 0-4.09375-.785156-5.65625-2.34375-3.128906-3.128906-3.128906-8.183593 0-11.3125 1.527344-1.527343 2.375-3.570312 2.375-5.730469 0-2.160156-.839843-4.183593-2.382812-5.71875-3.128906-3.128906-3.128906-8.183593-.007812-11.320312 3.128906-3.128906 8.191406-3.121094 11.320312-.007812 4.558594 4.558593 7.070312 10.609374 7.070312 17.046874.007813 6.433594-2.503906 12.488282-7.0625 17.042969-1.566406 1.558594-3.617187 2.34375-5.65625 2.34375zm0 0"/><path d="m269.347656 415.226562c-2.050781 0-4.097656-.785156-5.65625-2.34375l-56.570312-56.570312c-3.125-3.125-3.125-8.183594 0-11.308594 3.128906-3.128906 8.183594-3.128906 11.3125 0l56.570312 56.566406c3.125 3.128907 3.125 8.183594 0 11.3125-1.5625 1.566407-3.609375 2.34375-5.65625 2.34375zm0 0"/><path d="m291.96875 392.601562c-2.046875 0-4.09375-.785156-5.65625-2.34375l-56.558594-56.566406c-3.128906-3.128906-3.128906-8.183594 0-11.3125s8.183594-3.128906 11.3125 0l56.558594 56.566406c3.128906 3.128907 3.128906 8.183594 0 11.3125-1.558594 1.558594-3.605469 2.34375-5.65625 2.34375zm0 0"/><path d="m266.523438 418.058594c-2.050782 0-4.097657-.785156-5.65625-2.34375-3.128907-3.128906-3.128907-8.183594 0-11.3125l28.277343-28.273438c3.128907-3.125 8.1875-3.125 11.3125 0 3.128907 3.128906 3.128907 8.183594 0 11.3125l-28.277343 28.273438c-1.570313 1.558594-3.609376 2.34375-5.65625 2.34375zm0 0"/><path d="m212.777344 358.65625c-2.046875 0-4.09375-.78125-5.65625-2.34375-3.125-3.125-3.125-8.183594 0-11.308594l22.632812-22.625c3.128906-3.128906 8.183594-3.128906 11.3125 0s3.128906 8.183594 0 11.3125l-22.632812 22.621094c-1.558594 1.5625-3.605469 2.34375-5.65625 2.34375zm0 0"/><path d="m285.617188 296.640625c-2.046876 0-4.09375-.78125-5.65625-2.34375-3.125-3.125-3.125-8.183594 0-11.3125l56.570312-56.566406c3.128906-3.128907 8.183594-3.128907 11.3125 0 3.125 3.128906 3.125 8.183593 0 11.3125l-56.570312 56.566406c-1.558594 1.5625-3.605469 2.34375-5.65625 2.34375zm0 0"/><path d="m308.257812 319.265625c-2.046874 0-4.09375-.785156-5.65625-2.34375-3.128906-3.128906-3.128906-8.183594 0-11.3125l56.5625-56.566406c3.125-3.128907 8.183594-3.128907 11.308594 0 3.128906 3.128906 3.128906 8.183593 0 11.3125l-56.558594 56.566406c-1.566406 1.558594-3.617187 2.34375-5.65625 2.34375zm0 0"/><path d="m311.074219 322.089844c-2.046875 0-4.097657-.785156-5.65625-2.34375l-28.28125-28.273438c-3.125-3.125-3.125-8.183594 0-11.3125 3.128906-3.125 8.183593-3.125 11.3125 0l28.28125 28.273438c3.128906 3.128906 3.128906 8.183594 0 11.3125-1.558594 1.558594-3.609375 2.34375-5.65625 2.34375zm0 0"/><path d="m364.816406 262.699219c-2.046875 0-4.09375-.785157-5.652344-2.34375l-22.625-22.625c-3.128906-3.128907-3.128906-8.183594 0-11.3125 3.128907-3.128907 8.183594-3.128907 11.3125 0l22.621094 22.625c3.128906 3.128906 3.128906 8.183593 0 11.3125-1.558594 1.558593-3.605468 2.34375-5.65625 2.34375zm0 0"/></svg>